<?xml version="1.0" standalone="no"?>
<!DOCTYPE svg PUBLIC "-//W3C//DTD SVG 20010904//EN"
 "http://www.w3.org/TR/2001/REC-SVG-20010904/DTD/svg10.dtd">
<svg version="1.0" xmlns="http://www.w3.org/2000/svg"
 width="512.000000pt" height="512.000000pt" viewBox="0 0 512.000000 512.000000"
 preserveAspectRatio="xMidYMid meet">

<g transform="translate(0.000000,512.000000) scale(0.100000,-0.100000)"
fill="#000000" stroke="none">
<path d="M3394 3935 c-26 -11 -48 -46 -59 -94 -3 -17 -17 -53 -31 -81 -13 -27
-24 -55 -24 -61 0 -6 -25 -73 -55 -149 -30 -76 -55 -142 -55 -146 0 -5 -6 -21
-14 -35 -7 -15 -21 -51 -31 -80 -9 -30 -23 -63 -29 -74 -7 -11 -18 -40 -25
-65 -7 -25 -19 -55 -28 -68 -8 -13 -21 -48 -29 -77 -7 -30 -23 -71 -34 -92
-11 -21 -20 -44 -20 -53 0 -8 -11 -37 -24 -65 -13 -27 -32 -72 -41 -100 -47
-138 -67 -191 -79 -210 -7 -11 -17 -36 -21 -55 -4 -19 -18 -57 -30 -85 -39
-86 -67 -158 -81 -208 -25 -90 -75 -133 -124 -107 -20 11 -70 101 -70 127 0 7
-11 37 -25 67 -14 30 -25 63 -25 73 0 10 -14 45 -30 78 -17 33 -30 65 -30 73
0 7 -11 34 -24 60 -13 26 -27 61 -30 78 -4 16 -18 52 -31 79 -14 26 -25 55
-25 62 0 8 -11 39 -26 70 -14 31 -28 70 -31 87 -4 17 -17 51 -30 75 -13 24
-23 51 -23 60 0 9 -8 32 -19 51 -10 19 -26 62 -35 95 -10 32 -24 68 -32 80 -8
11 -19 38 -25 60 -6 22 -21 63 -35 92 -13 28 -24 57 -24 63 0 7 -7 26 -15 43
-8 18 -23 57 -34 87 -11 30 -34 91 -51 135 -18 44 -41 104 -51 134 -10 30 -24
60 -30 68 -10 11 -69 13 -323 11 l-311 -3 0 -1400 0 -1400 214 -3 c149 -2 218
1 227 9 12 10 14 161 14 919 0 888 0 907 20 925 14 13 28 16 54 11 33 -6 36
-11 74 -109 22 -56 44 -116 48 -132 4 -17 13 -39 20 -50 7 -11 19 -42 27 -70
8 -27 22 -63 31 -80 9 -16 16 -35 16 -42 0 -6 11 -38 24 -70 20 -50 43 -110
95 -253 8 -19 26 -69 41 -110 16 -41 36 -97 46 -125 9 -27 27 -72 39 -100 13
-27 26 -66 30 -85 4 -19 14 -44 21 -55 12 -19 34 -75 79 -210 9 -27 25 -68 35
-90 10 -22 25 -64 34 -94 9 -29 19 -59 24 -65 5 -6 16 -32 26 -59 l18 -47 157
0 158 0 31 73 c17 39 36 90 43 112 6 22 16 49 22 60 11 21 48 118 73 195 8 25
26 68 39 95 13 28 29 70 35 94 7 25 20 61 31 80 10 20 19 43 19 52 0 10 11 41
25 71 14 29 25 60 25 68 0 8 6 27 14 42 8 14 19 43 26 65 15 45 77 210 90 238
10 22 47 121 85 229 14 38 29 74 34 80 5 6 12 27 16 46 4 19 16 52 26 74 10
21 25 62 33 91 9 29 21 57 28 63 24 19 62 23 83 8 20 -14 20 -29 25 -933 l5
-918 219 -3 c169 -2 221 1 228 10 10 17 10 2769 0 2785 -10 16 -572 23 -608 8z"/>
</g>
</svg>
